{
	"asset":{
		"generator":"Khronos glTF Blender I/O v3.5.30",
		"version":"2.0"
	},
	"extensionsUsed":[
		"KHR_materials_specular",
		"KHR_materials_ior"
	],
	"scene":0,
	"scenes":[
		{
			"name":"Main Hub",
			"nodes":[
				0,
				1
			]
		}
	],
	"nodes":[
		{
			"mesh":0,
			"name":"Back_button_collider",
			"scale":[
				0.24584707617759705,
				0.24584707617759705,
				0.24584707617759705
			],
			"translation":[
				-44.226829528808594,
				2.275552749633789,
				6.113722324371338
			]
		},
		{
			"mesh":1,
			"name":"Cylinder.011",
			"rotation":[
				0,
				1,
				0,
				0
			],
			"scale":[
				0.18800243735313416,
				0.059442050755023956,
				0.18800243735313416
			],
			"translation":[
				-44.22389221191406,
				2.146261215209961,
				6.111647129058838
			]
		}
	],
	"materials":[
		{
			"doubleSided":true,
			"emissiveFactor":[
				0.005332769826054573,
				0.00017641999875195324,
				0.00013701998977921903
			],
			"extensions":{
				"KHR_materials_specular":{
					"specularColorFactor":[
						0,
						0,
						0
					]
				},
				"KHR_materials_ior":{
					"ior":1.4500000476837158
				}
			},
			"name":"Material.001",
			"pbrMetallicRoughness":{
				"baseColorFactor":[
					0.5332766175270081,
					0.017641957849264145,
					0.013702086172997952,
					1
				],
				"metallicFactor":0
			}
		},
		{
			"doubleSided":true,
			"name":"Material.012",
			"pbrMetallicRoughness":{
				"baseColorFactor":[
					0,
					0,
					0,
					1
				],
				"metallicFactor":0,
				"roughnessFactor":0.5
			}
		}
	],
	"meshes":[
		{
			"name":"Cube.306",
			"primitives":[
				{
					"attributes":{
						"POSITION":0,
						"TEXCOORD_0":1,
						"NORMAL":2
					},
					"indices":3
				}
			]
		},
		{
			"name":"Cylinder.175",
			"primitives":[
				{
					"attributes":{
						"POSITION":4,
						"TEXCOORD_0":5,
						"NORMAL":6
					},
					"indices":7,
					"material":0
				},
				{
					"attributes":{
						"POSITION":8,
						"TEXCOORD_0":9,
						"NORMAL":10
					},
					"indices":11,
					"material":1
				}
			]
		}
	],
	"accessors":[
		{
			"bufferView":0,
			"componentType":5126,
			"count":24,
			"max":[
				1.131751537322998,
				1,
				1.1317517757415771
			],
			"min":[
				-1.131751537322998,
				-5.05136251449585,
				-1.131751298904419
			],
			"type":"VEC3"
		},
		{
			"bufferView":1,
			"componentType":5126,
			"count":24,
			"type":"VEC2"
		},
		{
			"bufferView":2,
			"componentType":5126,
			"count":24,
			"type":"VEC3"
		},
		{
			"bufferView":3,
			"componentType":5123,
			"count":36,
			"type":"SCALAR"
		},
		{
			"bufferView":4,
			"componentType":5126,
			"count":80,
			"max":[
				1,
				1.6718748807907104,
				1.0472445487976074
			],
			"min":[
				-1,
				-1.756678819656372,
				-1.0217056274414062
			],
			"type":"VEC3"
		},
		{
			"bufferView":5,
			"componentType":5126,
			"count":80,
			"type":"VEC2"
		},
		{
			"bufferView":6,
			"componentType":5126,
			"count":80,
			"type":"VEC3"
		},
		{
			"bufferView":7,
			"componentType":5123,
			"count":132,
			"type":"SCALAR"
		},
		{
			"bufferView":8,
			"componentType":5126,
			"count":92,
			"max":[
				1.3325854539871216,
				1.055023193359375,
				1.2921853065490723
			],
			"min":[
				-1.3325930833816528,
				-18.892181396484375,
				-1.2918857336044312
			],
			"type":"VEC3"
		},
		{
			"bufferView":9,
			"componentType":5126,
			"count":92,
			"type":"VEC2"
		},
		{
			"bufferView":10,
			"componentType":5126,
			"count":92,
			"type":"VEC3"
		},
		{
			"bufferView":11,
			"componentType":5123,
			"count":132,
			"type":"SCALAR"
		}
	],
	"bufferViews":[
		{
			"buffer":0,
			"byteLength":288,
			"byteOffset":0,
			"target":34962
		},
		{
			"buffer":0,
			"byteLength":192,
			"byteOffset":288,
			"target":34962
		},
		{
			"buffer":0,
			"byteLength":288,
			"byteOffset":480,
			"target":34962
		},
		{
			"buffer":0,
			"byteLength":72,
			"byteOffset":768,
			"target":34963
		},
		{
			"buffer":0,
			"byteLength":960,
			"byteOffset":840,
			"target":34962
		},
		{
			"buffer":0,
			"byteLength":640,
			"byteOffset":1800,
			"target":34962
		},
		{
			"buffer":0,
			"byteLength":960,
			"byteOffset":2440,
			"target":34962
		},
		{
			"buffer":0,
			"byteLength":264,
			"byteOffset":3400,
			"target":34963
		},
		{
			"buffer":0,
			"byteLength":1104,
			"byteOffset":3664,
			"target":34962
		},
		{
			"buffer":0,
			"byteLength":736,
			"byteOffset":4768,
			"target":34962
		},
		{
			"buffer":0,
			"byteLength":1104,
			"byteOffset":5504,
			"target":34962
		},
		{
			"buffer":0,
			"byteLength":264,
			"byteOffset":6608,
			"target":34963
		}
	],
	"buffers":[
		{
			"byteLength":6872,
			"uri":"ubs_int_young_hyperlink.bin"
		}
	]
}
