{
	"asset":{
		"generator":"Khronos glTF Blender I/O v3.5.30",
		"version":"2.0"
	},
	"extensionsUsed":[
		"KHR_materials_specular",
		"KHR_materials_ior"
	],
	"scene":0,
	"scenes":[
		{
			"name":"Scene",
			"nodes":[
				0,
				1,
				2
			]
		}
	],
	"nodes":[
		{
			"mesh":0,
			"name":"back_Button_base_collider",
			"rotation":[
				0,
				-0.7071068286895752,
				0,
				0.7071067094802856
			],
			"scale":[
				0.7513704299926758,
				0.7513703107833862,
				0.7513704299926758
			],
			"translation":[
				-37.409446716308594,
				8.654571533203125,
				10.325458526611328
			]
		},
		{
			"mesh":1,
			"name":"Cylinder.001",
			"rotation":[
				0,
				-0.70710688829422,
				0,
				0.7071067094802856
			],
			"scale":[
				0.18800246715545654,
				0.059442050755023956,
				0.18800246715545654
			],
			"translation":[
				-37.409446716308594,
				9.774456024169922,
				10.325458526611328
			]
		},
		{
			"mesh":2,
			"name":"Back_button_collider",
			"scale":[
				0.24584707617759705,
				0.24584707617759705,
				0.24584707617759705
			],
			"translation":[
				-37.41238021850586,
				9.90374755859375,
				10.327533721923828
			]
		}
	],
	"materials":[
		{
			"doubleSided":true,
			"emissiveFactor":[
				0.005332769826054573,
				0.00017641999875195324,
				0.00013701998977921903
			],
			"extensions":{
				"KHR_materials_specular":{
					"specularColorFactor":[
						0,
						0,
						0
					]
				},
				"KHR_materials_ior":{
					"ior":1.4500000476837158
				}
			},
			"name":"Material.009",
			"pbrMetallicRoughness":{
				"baseColorFactor":[
					0.5332766175270081,
					0.017641957849264145,
					0.013702086172997952,
					1
				],
				"metallicFactor":0
			}
		},
		{
			"doubleSided":true,
			"name":"Material.006",
			"pbrMetallicRoughness":{
				"baseColorFactor":[
					0,
					0,
					0,
					1
				],
				"metallicFactor":0,
				"roughnessFactor":0.5
			}
		}
	],
	"meshes":[
		{
			"name":"Cube.010",
			"primitives":[
				{
					"attributes":{
						"POSITION":0,
						"TEXCOORD_0":1,
						"NORMAL":2
					},
					"indices":3
				}
			]
		},
		{
			"name":"Cylinder.001",
			"primitives":[
				{
					"attributes":{
						"POSITION":4,
						"TEXCOORD_0":5,
						"NORMAL":6
					},
					"indices":7,
					"material":0
				},
				{
					"attributes":{
						"POSITION":8,
						"TEXCOORD_0":9,
						"NORMAL":10
					},
					"indices":11,
					"material":1
				}
			]
		},
		{
			"name":"Cube.012",
			"primitives":[
				{
					"attributes":{
						"POSITION":12,
						"TEXCOORD_0":13,
						"NORMAL":14
					},
					"indices":15
				}
			]
		}
	],
	"accessors":[
		{
			"bufferView":0,
			"componentType":5126,
			"count":92,
			"max":[
				0.33343085646629333,
				1.5739178657531738,
				0.32332128286361694
			],
			"min":[
				-0.33343085646629333,
				-0.004136115312576294,
				-0.3232463300228119
			],
			"type":"VEC3"
		},
		{
			"bufferView":1,
			"componentType":5126,
			"count":92,
			"type":"VEC2"
		},
		{
			"bufferView":2,
			"componentType":5126,
			"count":92,
			"type":"VEC3"
		},
		{
			"bufferView":3,
			"componentType":5123,
			"count":132,
			"type":"SCALAR"
		},
		{
			"bufferView":4,
			"componentType":5126,
			"count":80,
			"max":[
				1,
				1.6718748807907104,
				1.0472445487976074
			],
			"min":[
				-1,
				-1.756678819656372,
				-1.0217056274414062
			],
			"type":"VEC3"
		},
		{
			"bufferView":5,
			"componentType":5126,
			"count":80,
			"type":"VEC2"
		},
		{
			"bufferView":6,
			"componentType":5126,
			"count":80,
			"type":"VEC3"
		},
		{
			"bufferView":7,
			"componentType":5123,
			"count":132,
			"type":"SCALAR"
		},
		{
			"bufferView":8,
			"componentType":5126,
			"count":92,
			"max":[
				1.3325854539871216,
				1.055023193359375,
				1.2921853065490723
			],
			"min":[
				-1.3325930833816528,
				-18.892181396484375,
				-1.2918857336044312
			],
			"type":"VEC3"
		},
		{
			"bufferView":9,
			"componentType":5126,
			"count":92,
			"type":"VEC2"
		},
		{
			"bufferView":10,
			"componentType":5126,
			"count":92,
			"type":"VEC3"
		},
		{
			"bufferView":11,
			"componentType":5123,
			"count":132,
			"type":"SCALAR"
		},
		{
			"bufferView":12,
			"componentType":5126,
			"count":24,
			"max":[
				1,
				1,
				1
			],
			"min":[
				-1,
				-1,
				-1
			],
			"type":"VEC3"
		},
		{
			"bufferView":13,
			"componentType":5126,
			"count":24,
			"type":"VEC2"
		},
		{
			"bufferView":14,
			"componentType":5126,
			"count":24,
			"type":"VEC3"
		},
		{
			"bufferView":15,
			"componentType":5123,
			"count":36,
			"type":"SCALAR"
		}
	],
	"bufferViews":[
		{
			"buffer":0,
			"byteLength":1104,
			"byteOffset":0,
			"target":34962
		},
		{
			"buffer":0,
			"byteLength":736,
			"byteOffset":1104,
			"target":34962
		},
		{
			"buffer":0,
			"byteLength":1104,
			"byteOffset":1840,
			"target":34962
		},
		{
			"buffer":0,
			"byteLength":264,
			"byteOffset":2944,
			"target":34963
		},
		{
			"buffer":0,
			"byteLength":960,
			"byteOffset":3208,
			"target":34962
		},
		{
			"buffer":0,
			"byteLength":640,
			"byteOffset":4168,
			"target":34962
		},
		{
			"buffer":0,
			"byteLength":960,
			"byteOffset":4808,
			"target":34962
		},
		{
			"buffer":0,
			"byteLength":264,
			"byteOffset":5768,
			"target":34963
		},
		{
			"buffer":0,
			"byteLength":1104,
			"byteOffset":6032,
			"target":34962
		},
		{
			"buffer":0,
			"byteLength":736,
			"byteOffset":7136,
			"target":34962
		},
		{
			"buffer":0,
			"byteLength":1104,
			"byteOffset":7872,
			"target":34962
		},
		{
			"buffer":0,
			"byteLength":264,
			"byteOffset":8976,
			"target":34963
		},
		{
			"buffer":0,
			"byteLength":288,
			"byteOffset":9240,
			"target":34962
		},
		{
			"buffer":0,
			"byteLength":192,
			"byteOffset":9528,
			"target":34962
		},
		{
			"buffer":0,
			"byteLength":288,
			"byteOffset":9720,
			"target":34962
		},
		{
			"buffer":0,
			"byteLength":72,
			"byteOffset":10008,
			"target":34963
		}
	],
	"buffers":[
		{
			"byteLength":10080,
			"uri":"ubs_inbetweenspace_back_button.bin"
		}
	]
}
