{
	"asset":{
		"generator":"Khronos glTF Blender I/O v3.5.30",
		"version":"2.0"
	},
	"scene":0,
	"scenes":[
		{
			"name":"Main Hub",
			"nodes":[
				0,
				1
			]
		}
	],
	"nodes":[
		{
			"mesh":0,
			"name":"Art_gallery_floor_button",
			"scale":[
				1,
				1,
				0.06797844171524048
			],
			"translation":[
				-42.92123031616211,
				15.360986709594727,
				25.969839096069336
			]
		},
		{
			"mesh":1,
			"name":"Art_gallery_floor_button_collider",
			"scale":[
				1,
				1,
				0.06797844171524048
			],
			"translation":[
				-42.92123031616211,
				15.362098693847656,
				25.969839096069336
			]
		}
	],
	"materials":[
		{
			"doubleSided":true,
			"name":"elevator_buttons",
			"pbrMetallicRoughness":{
				"baseColorTexture":{
					"index":0
				},
				"metallicFactor":0,
				"roughnessFactor":0.5
			}
		}
	],
	"meshes":[
		{
			"name":"Cube.365",
			"primitives":[
				{
					"attributes":{
						"POSITION":0,
						"TEXCOORD_0":1,
						"NORMAL":2
					},
					"indices":3,
					"material":0
				}
			]
		},
		{
			"name":"Cube.384",
			"primitives":[
				{
					"attributes":{
						"POSITION":4,
						"TEXCOORD_0":5,
						"NORMAL":6
					},
					"indices":3
				}
			]
		}
	],
	"textures":[
		{
			"sampler":0,
			"source":0
		}
	],
	"images":[
		{
			"mimeType":"image/jpeg",
			"name":"ubs_buttons_1",
			"uri":"textures/ubs_buttons_1.jpg"
		}
	],
	"accessors":[
		{
			"bufferView":0,
			"componentType":5126,
			"count":208,
			"max":[
				4.368935585021973,
				19.378257751464844,
				552.4356689453125
			],
			"min":[
				-5.5918354988098145,
				-14.498111724853516,
				-184.20559692382812
			],
			"type":"VEC3"
		},
		{
			"bufferView":1,
			"componentType":5126,
			"count":208,
			"type":"VEC2"
		},
		{
			"bufferView":2,
			"componentType":5126,
			"count":208,
			"type":"VEC3"
		},
		{
			"bufferView":3,
			"componentType":5123,
			"count":528,
			"type":"SCALAR"
		},
		{
			"bufferView":4,
			"componentType":5126,
			"count":208,
			"max":[
				4.368935585021973,
				19.381587982177734,
				552.4356689453125
			],
			"min":[
				-5.5918354988098145,
				-14.499223709106445,
				-184.20559692382812
			],
			"type":"VEC3"
		},
		{
			"bufferView":5,
			"componentType":5126,
			"count":208,
			"type":"VEC2"
		},
		{
			"bufferView":6,
			"componentType":5126,
			"count":208,
			"type":"VEC3"
		}
	],
	"bufferViews":[
		{
			"buffer":0,
			"byteLength":2496,
			"byteOffset":0,
			"target":34962
		},
		{
			"buffer":0,
			"byteLength":1664,
			"byteOffset":2496,
			"target":34962
		},
		{
			"buffer":0,
			"byteLength":2496,
			"byteOffset":4160,
			"target":34962
		},
		{
			"buffer":0,
			"byteLength":1056,
			"byteOffset":6656,
			"target":34963
		},
		{
			"buffer":0,
			"byteLength":2496,
			"byteOffset":7712,
			"target":34962
		},
		{
			"buffer":0,
			"byteLength":1664,
			"byteOffset":10208,
			"target":34962
		},
		{
			"buffer":0,
			"byteLength":2496,
			"byteOffset":11872,
			"target":34962
		}
	],
	"samplers":[
		{
			"magFilter":9729,
			"minFilter":9987
		}
	],
	"buffers":[
		{
			"byteLength":14368,
			"uri":"ubs_elevator_button_gallery_floor.bin"
		}
	]
}
