{
	"asset":{
		"generator":"Khronos glTF Blender I/O v3.5.30",
		"version":"2.0"
	},
	"extensionsUsed":[
		"KHR_materials_specular",
		"KHR_materials_ior"
	],
	"scene":0,
	"scenes":[
		{
			"name":"Main Hub",
			"nodes":[
				0,
				1,
				2,
				3,
				4,
				5,
				6,
				7,
				8
			]
		}
	],
	"nodes":[
		{
			"mesh":0,
			"name":"Key",
			"rotation":[
				0,
				-0.7071068286895752,
				0,
				0.7071068286895752
			],
			"scale":[
				1.404797077178955,
				1.404797077178955,
				1.404797077178955
			],
			"translation":[
				-15.205684661865234,
				19.402889251708984,
				23.421504974365234
			]
		},
		{
			"mesh":1,
			"name":"Key.001",
			"rotation":[
				0,
				-0.21512678265571594,
				0,
				0.9765862226486206
			],
			"scale":[
				1.5089812278747559,
				1.5089812278747559,
				1.5089812278747559
			],
			"translation":[
				-76.58499908447266,
				2.5064749717712402,
				5.3604607582092285
			]
		},
		{
			"mesh":2,
			"name":"Key.002",
			"rotation":[
				0,
				-0.7071068286895752,
				0,
				0.7071068286895752
			],
			"scale":[
				1.10941481590271,
				1.1094146966934204,
				1.10941481590271
			],
			"translation":[
				-68.73384857177734,
				2.2485079765319824,
				49.15747833251953
			]
		},
		{
			"mesh":3,
			"name":"Key.003",
			"rotation":[
				0,
				-0.28221505880355835,
				0,
				0.9593511819839478
			],
			"translation":[
				-61.074302673339844,
				2.0149412155151367,
				39.197410583496094
			]
		},
		{
			"mesh":4,
			"name":"Key.004",
			"rotation":[
				0,
				-0.7164831161499023,
				0,
				0.6976044774055481
			],
			"translation":[
				-71.84378814697266,
				15.902351379394531,
				13.220782279968262
			]
		},
		{
			"mesh":5,
			"name":"Logo_Text.001",
			"rotation":[
				0,
				-0.7164831161499023,
				0,
				0.6976044774055481
			],
			"translation":[
				-71.01529693603516,
				16.25601577758789,
				19.65691566467285
			]
		},
		{
			"mesh":6,
			"name":"Logo_Text.002",
			"rotation":[
				0,
				-0.7164831161499023,
				0,
				0.6976044774055481
			],
			"translation":[
				-69.80430603027344,
				16.99601173400879,
				24.082901000976562
			]
		},
		{
			"mesh":7,
			"name":"Logo_Text",
			"rotation":[
				0,
				-0.7164831161499023,
				0,
				0.6976044774055481
			],
			"translation":[
				-68.69328308105469,
				17.130098342895508,
				26.854598999023438
			]
		},
		{
			"mesh":8,
			"name":"Key.005",
			"rotation":[
				0,
				-0.7071068286895752,
				0,
				0.7071068286895752
			],
			"translation":[
				-3.671022653579712,
				2.7378158569335938,
				3.8488030433654785
			]
		}
	],
	"animations":[
		{
			"channels":[
				{
					"sampler":0,
					"target":{
						"node":0,
						"path":"rotation"
					}
				},
				{
					"sampler":1,
					"target":{
						"node":1,
						"path":"rotation"
					}
				},
				{
					"sampler":2,
					"target":{
						"node":2,
						"path":"rotation"
					}
				},
				{
					"sampler":3,
					"target":{
						"node":3,
						"path":"rotation"
					}
				},
				{
					"sampler":4,
					"target":{
						"node":8,
						"path":"rotation"
					}
				}
			],
			"name":"Animation",
			"samplers":[
				{
					"input":48,
					"interpolation":"LINEAR",
					"output":49
				},
				{
					"input":48,
					"interpolation":"LINEAR",
					"output":50
				},
				{
					"input":48,
					"interpolation":"LINEAR",
					"output":51
				},
				{
					"input":48,
					"interpolation":"LINEAR",
					"output":52
				},
				{
					"input":48,
					"interpolation":"LINEAR",
					"output":53
				}
			]
		}
	],
	"materials":[
		{
			"doubleSided":true,
			"name":"Black_plastic",
			"pbrMetallicRoughness":{
				"baseColorFactor":[
					0,
					0,
					0,
					1
				],
				"metallicFactor":0
			}
		},
		{
			"doubleSided":true,
			"emissiveFactor":[
				0.05332769831013229,
				0.0017642000952988873,
				0.0013701999764174216
			],
			"extensions":{
				"KHR_materials_specular":{
					"specularColorFactor":[
						0,
						0,
						0
					]
				},
				"KHR_materials_ior":{
					"ior":1.4500000476837158
				}
			},
			"name":"Material.009",
			"pbrMetallicRoughness":{
				"baseColorFactor":[
					0.5332766175270081,
					0.017641957849264145,
					0.013702086172997952,
					1
				],
				"metallicFactor":0,
				"roughnessFactor":0.5
			}
		}
	],
	"meshes":[
		{
			"name":"Plane.072",
			"primitives":[
				{
					"attributes":{
						"POSITION":0,
						"TEXCOORD_0":1,
						"NORMAL":2
					},
					"indices":3,
					"material":0
				}
			]
		},
		{
			"name":"Plane.030",
			"primitives":[
				{
					"attributes":{
						"POSITION":4,
						"TEXCOORD_0":5,
						"NORMAL":6
					},
					"indices":7,
					"material":0
				}
			]
		},
		{
			"name":"Plane.035",
			"primitives":[
				{
					"attributes":{
						"POSITION":8,
						"TEXCOORD_0":9,
						"NORMAL":10
					},
					"indices":11,
					"material":0
				}
			]
		},
		{
			"name":"Plane.027",
			"primitives":[
				{
					"attributes":{
						"POSITION":12,
						"TEXCOORD_0":13,
						"NORMAL":14
					},
					"indices":15,
					"material":0
				}
			]
		},
		{
			"name":"Plane.078",
			"primitives":[
				{
					"attributes":{
						"POSITION":16,
						"TEXCOORD_0":17,
						"NORMAL":18
					},
					"indices":19,
					"material":0
				}
			]
		},
		{
			"name":"Plane.073",
			"primitives":[
				{
					"attributes":{
						"POSITION":20,
						"TEXCOORD_0":21,
						"NORMAL":22
					},
					"indices":23,
					"material":1
				},
				{
					"attributes":{
						"POSITION":24,
						"TEXCOORD_0":25,
						"NORMAL":26
					},
					"indices":27,
					"material":0
				}
			]
		},
		{
			"name":"Plane.076",
			"primitives":[
				{
					"attributes":{
						"POSITION":28,
						"TEXCOORD_0":29,
						"NORMAL":30
					},
					"indices":31,
					"material":1
				},
				{
					"attributes":{
						"POSITION":32,
						"TEXCOORD_0":33,
						"NORMAL":34
					},
					"indices":35,
					"material":0
				}
			]
		},
		{
			"name":"Plane.077",
			"primitives":[
				{
					"attributes":{
						"POSITION":36,
						"TEXCOORD_0":37,
						"NORMAL":38
					},
					"indices":39,
					"material":1
				},
				{
					"attributes":{
						"POSITION":40,
						"TEXCOORD_0":41,
						"NORMAL":42
					},
					"indices":43,
					"material":0
				}
			]
		},
		{
			"name":"Plane.045",
			"primitives":[
				{
					"attributes":{
						"POSITION":44,
						"TEXCOORD_0":45,
						"NORMAL":46
					},
					"indices":47,
					"material":0
				}
			]
		}
	],
	"accessors":[
		{
			"bufferView":0,
			"componentType":5126,
			"count":1536,
			"max":[
				1.1083984375,
				1.5435978174209595,
				0.049529075622558594
			],
			"min":[
				-1.0765495300292969,
				-0.966498851776123,
				-0.049424171447753906
			],
			"type":"VEC3"
		},
		{
			"bufferView":1,
			"componentType":5126,
			"count":1536,
			"type":"VEC2"
		},
		{
			"bufferView":2,
			"componentType":5126,
			"count":1536,
			"type":"VEC3"
		},
		{
			"bufferView":3,
			"componentType":5123,
			"count":3408,
			"type":"SCALAR"
		},
		{
			"bufferView":4,
			"componentType":5126,
			"count":1520,
			"max":[
				0.8975448608398438,
				1.2589420080184937,
				0.1861724853515625
			],
			"min":[
				-0.8719406127929688,
				-0.7876743078231812,
				-0.18180084228515625
			],
			"type":"VEC3"
		},
		{
			"bufferView":5,
			"componentType":5126,
			"count":1520,
			"type":"VEC2"
		},
		{
			"bufferView":6,
			"componentType":5126,
			"count":1520,
			"type":"VEC3"
		},
		{
			"bufferView":7,
			"componentType":5123,
			"count":3408,
			"type":"SCALAR"
		},
		{
			"bufferView":8,
			"componentType":5126,
			"count":1598,
			"max":[
				0.8426685333251953,
				2.4617698192596436,
				1.5737533569335938
			],
			"min":[
				-0.8203182220458984,
				-1.5403183698654175,
				-1.61944580078125
			],
			"type":"VEC3"
		},
		{
			"bufferView":9,
			"componentType":5126,
			"count":1598,
			"type":"VEC2"
		},
		{
			"bufferView":10,
			"componentType":5126,
			"count":1598,
			"type":"VEC3"
		},
		{
			"bufferView":11,
			"componentType":5123,
			"count":3654,
			"type":"SCALAR"
		},
		{
			"bufferView":12,
			"componentType":5126,
			"count":1524,
			"max":[
				0.8851509094238281,
				1.259739637374878,
				0.25244140625
			],
			"min":[
				-0.8599433898925781,
				-0.7876743674278259,
				-0.2587890625
			],
			"type":"VEC3"
		},
		{
			"bufferView":13,
			"componentType":5126,
			"count":1524,
			"type":"VEC2"
		},
		{
			"bufferView":14,
			"componentType":5126,
			"count":1524,
			"type":"VEC3"
		},
		{
			"bufferView":15,
			"componentType":5123,
			"count":3408,
			"type":"SCALAR"
		},
		{
			"bufferView":16,
			"componentType":5126,
			"count":1644,
			"max":[
				3.18359375,
				4.432544708251953,
				0.37572479248046875
			],
			"min":[
				-3.0922470092773438,
				-2.7622222900390625,
				-0.3829193115234375
			],
			"type":"VEC3"
		},
		{
			"bufferView":17,
			"componentType":5126,
			"count":1644,
			"type":"VEC2"
		},
		{
			"bufferView":18,
			"componentType":5126,
			"count":1644,
			"type":"VEC3"
		},
		{
			"bufferView":19,
			"componentType":5123,
			"count":3894,
			"type":"SCALAR"
		},
		{
			"bufferView":20,
			"componentType":5126,
			"count":94,
			"max":[
				1.8056793212890625,
				3.1452560424804688,
				0.60552978515625
			],
			"min":[
				-2.176776885986328,
				-1.8310623168945312,
				-0.5218734741210938
			],
			"type":"VEC3"
		},
		{
			"bufferView":21,
			"componentType":5126,
			"count":94,
			"type":"VEC2"
		},
		{
			"bufferView":22,
			"componentType":5126,
			"count":94,
			"type":"VEC3"
		},
		{
			"bufferView":23,
			"componentType":5123,
			"count":252,
			"type":"SCALAR"
		},
		{
			"bufferView":24,
			"componentType":5126,
			"count":176,
			"max":[
				1.8056793212890625,
				3.1452560424804688,
				0.60552978515625
			],
			"min":[
				-2.176776885986328,
				-1.8310623168945312,
				-0.5218734741210938
			],
			"type":"VEC3"
		},
		{
			"bufferView":25,
			"componentType":5126,
			"count":176,
			"type":"VEC2"
		},
		{
			"bufferView":26,
			"componentType":5126,
			"count":176,
			"type":"VEC3"
		},
		{
			"bufferView":27,
			"componentType":5123,
			"count":264,
			"type":"SCALAR"
		},
		{
			"bufferView":28,
			"componentType":5126,
			"count":122,
			"max":[
				1.1416893005371094,
				2.445049285888672,
				0.8703155517578125
			],
			"min":[
				-2.180126190185547,
				-2.4708709716796875,
				-0.5045013427734375
			],
			"type":"VEC3"
		},
		{
			"bufferView":29,
			"componentType":5126,
			"count":122,
			"type":"VEC2"
		},
		{
			"bufferView":30,
			"componentType":5126,
			"count":122,
			"type":"VEC3"
		},
		{
			"bufferView":31,
			"componentType":5123,
			"count":378,
			"type":"SCALAR"
		},
		{
			"bufferView":32,
			"componentType":5126,
			"count":244,
			"max":[
				1.1416893005371094,
				2.445049285888672,
				0.8703155517578125
			],
			"min":[
				-2.180126190185547,
				-2.4708709716796875,
				-0.5045013427734375
			],
			"type":"VEC3"
		},
		{
			"bufferView":33,
			"componentType":5126,
			"count":244,
			"type":"VEC2"
		},
		{
			"bufferView":34,
			"componentType":5126,
			"count":244,
			"type":"VEC3"
		},
		{
			"bufferView":35,
			"componentType":5123,
			"count":366,
			"type":"SCALAR"
		},
		{
			"bufferView":36,
			"componentType":5126,
			"count":150,
			"max":[
				1.3202552795410156,
				2.4251670837402344,
				0.7046279907226562
			],
			"min":[
				-1.2148475646972656,
				-2.5863475799560547,
				-0.7587127685546875
			],
			"type":"VEC3"
		},
		{
			"bufferView":37,
			"componentType":5126,
			"count":150,
			"type":"VEC2"
		},
		{
			"bufferView":38,
			"componentType":5126,
			"count":150,
			"type":"VEC3"
		},
		{
			"bufferView":39,
			"componentType":5123,
			"count":420,
			"type":"SCALAR"
		},
		{
			"bufferView":40,
			"componentType":5126,
			"count":288,
			"max":[
				1.3202552795410156,
				2.4251670837402344,
				0.7046279907226562
			],
			"min":[
				-1.2148475646972656,
				-2.5863475799560547,
				-0.7587127685546875
			],
			"type":"VEC3"
		},
		{
			"bufferView":41,
			"componentType":5126,
			"count":288,
			"type":"VEC2"
		},
		{
			"bufferView":42,
			"componentType":5126,
			"count":288,
			"type":"VEC3"
		},
		{
			"bufferView":43,
			"componentType":5123,
			"count":432,
			"type":"SCALAR"
		},
		{
			"bufferView":44,
			"componentType":5126,
			"count":1650,
			"max":[
				1.7890815734863281,
				3.403055191040039,
				1.7586073875427246
			],
			"min":[
				-1.7396392822265625,
				-2.1273767948150635,
				-1.8085932731628418
			],
			"type":"VEC3"
		},
		{
			"bufferView":45,
			"componentType":5126,
			"count":1650,
			"type":"VEC2"
		},
		{
			"bufferView":46,
			"componentType":5126,
			"count":1650,
			"type":"VEC3"
		},
		{
			"bufferView":47,
			"componentType":5123,
			"count":3894,
			"type":"SCALAR"
		},
		{
			"bufferView":48,
			"componentType":5126,
			"count":251,
			"max":[
				10.416666666666666
			],
			"min":[
				0
			],
			"type":"SCALAR"
		},
		{
			"bufferView":49,
			"componentType":5126,
			"count":251,
			"type":"VEC4"
		},
		{
			"bufferView":50,
			"componentType":5126,
			"count":251,
			"type":"VEC4"
		},
		{
			"bufferView":51,
			"componentType":5126,
			"count":251,
			"type":"VEC4"
		},
		{
			"bufferView":52,
			"componentType":5126,
			"count":251,
			"type":"VEC4"
		},
		{
			"bufferView":53,
			"componentType":5126,
			"count":251,
			"type":"VEC4"
		}
	],
	"bufferViews":[
		{
			"buffer":0,
			"byteLength":18432,
			"byteOffset":0,
			"target":34962
		},
		{
			"buffer":0,
			"byteLength":12288,
			"byteOffset":18432,
			"target":34962
		},
		{
			"buffer":0,
			"byteLength":18432,
			"byteOffset":30720,
			"target":34962
		},
		{
			"buffer":0,
			"byteLength":6816,
			"byteOffset":49152,
			"target":34963
		},
		{
			"buffer":0,
			"byteLength":18240,
			"byteOffset":55968,
			"target":34962
		},
		{
			"buffer":0,
			"byteLength":12160,
			"byteOffset":74208,
			"target":34962
		},
		{
			"buffer":0,
			"byteLength":18240,
			"byteOffset":86368,
			"target":34962
		},
		{
			"buffer":0,
			"byteLength":6816,
			"byteOffset":104608,
			"target":34963
		},
		{
			"buffer":0,
			"byteLength":19176,
			"byteOffset":111424,
			"target":34962
		},
		{
			"buffer":0,
			"byteLength":12784,
			"byteOffset":130600,
			"target":34962
		},
		{
			"buffer":0,
			"byteLength":19176,
			"byteOffset":143384,
			"target":34962
		},
		{
			"buffer":0,
			"byteLength":7308,
			"byteOffset":162560,
			"target":34963
		},
		{
			"buffer":0,
			"byteLength":18288,
			"byteOffset":169868,
			"target":34962
		},
		{
			"buffer":0,
			"byteLength":12192,
			"byteOffset":188156,
			"target":34962
		},
		{
			"buffer":0,
			"byteLength":18288,
			"byteOffset":200348,
			"target":34962
		},
		{
			"buffer":0,
			"byteLength":6816,
			"byteOffset":218636,
			"target":34963
		},
		{
			"buffer":0,
			"byteLength":19728,
			"byteOffset":225452,
			"target":34962
		},
		{
			"buffer":0,
			"byteLength":13152,
			"byteOffset":245180,
			"target":34962
		},
		{
			"buffer":0,
			"byteLength":19728,
			"byteOffset":258332,
			"target":34962
		},
		{
			"buffer":0,
			"byteLength":7788,
			"byteOffset":278060,
			"target":34963
		},
		{
			"buffer":0,
			"byteLength":1128,
			"byteOffset":285848,
			"target":34962
		},
		{
			"buffer":0,
			"byteLength":752,
			"byteOffset":286976,
			"target":34962
		},
		{
			"buffer":0,
			"byteLength":1128,
			"byteOffset":287728,
			"target":34962
		},
		{
			"buffer":0,
			"byteLength":504,
			"byteOffset":288856,
			"target":34963
		},
		{
			"buffer":0,
			"byteLength":2112,
			"byteOffset":289360,
			"target":34962
		},
		{
			"buffer":0,
			"byteLength":1408,
			"byteOffset":291472,
			"target":34962
		},
		{
			"buffer":0,
			"byteLength":2112,
			"byteOffset":292880,
			"target":34962
		},
		{
			"buffer":0,
			"byteLength":528,
			"byteOffset":294992,
			"target":34963
		},
		{
			"buffer":0,
			"byteLength":1464,
			"byteOffset":295520,
			"target":34962
		},
		{
			"buffer":0,
			"byteLength":976,
			"byteOffset":296984,
			"target":34962
		},
		{
			"buffer":0,
			"byteLength":1464,
			"byteOffset":297960,
			"target":34962
		},
		{
			"buffer":0,
			"byteLength":756,
			"byteOffset":299424,
			"target":34963
		},
		{
			"buffer":0,
			"byteLength":2928,
			"byteOffset":300180,
			"target":34962
		},
		{
			"buffer":0,
			"byteLength":1952,
			"byteOffset":303108,
			"target":34962
		},
		{
			"buffer":0,
			"byteLength":2928,
			"byteOffset":305060,
			"target":34962
		},
		{
			"buffer":0,
			"byteLength":732,
			"byteOffset":307988,
			"target":34963
		},
		{
			"buffer":0,
			"byteLength":1800,
			"byteOffset":308720,
			"target":34962
		},
		{
			"buffer":0,
			"byteLength":1200,
			"byteOffset":310520,
			"target":34962
		},
		{
			"buffer":0,
			"byteLength":1800,
			"byteOffset":311720,
			"target":34962
		},
		{
			"buffer":0,
			"byteLength":840,
			"byteOffset":313520,
			"target":34963
		},
		{
			"buffer":0,
			"byteLength":3456,
			"byteOffset":314360,
			"target":34962
		},
		{
			"buffer":0,
			"byteLength":2304,
			"byteOffset":317816,
			"target":34962
		},
		{
			"buffer":0,
			"byteLength":3456,
			"byteOffset":320120,
			"target":34962
		},
		{
			"buffer":0,
			"byteLength":864,
			"byteOffset":323576,
			"target":34963
		},
		{
			"buffer":0,
			"byteLength":19800,
			"byteOffset":324440,
			"target":34962
		},
		{
			"buffer":0,
			"byteLength":13200,
			"byteOffset":344240,
			"target":34962
		},
		{
			"buffer":0,
			"byteLength":19800,
			"byteOffset":357440,
			"target":34962
		},
		{
			"buffer":0,
			"byteLength":7788,
			"byteOffset":377240,
			"target":34963
		},
		{
			"buffer":0,
			"byteLength":1004,
			"byteOffset":385028
		},
		{
			"buffer":0,
			"byteLength":4016,
			"byteOffset":386032
		},
		{
			"buffer":0,
			"byteLength":4016,
			"byteOffset":390048
		},
		{
			"buffer":0,
			"byteLength":4016,
			"byteOffset":394064
		},
		{
			"buffer":0,
			"byteLength":4016,
			"byteOffset":398080
		},
		{
			"buffer":0,
			"byteLength":4016,
			"byteOffset":402096
		}
	],
	"buffers":[
		{
			"byteLength":406112,
			"uri":"ubs_ext_branding.bin"
		}
	]
}
