{
	"asset":{
		"generator":"Khronos glTF Blender I/O v3.5.30",
		"version":"2.0"
	},
	"scene":0,
	"scenes":[
		{
			"name":"Main Hub",
			"nodes":[
				0,
				1
			]
		}
	],
	"nodes":[
		{
			"mesh":0,
			"name":"Ground_floor_button",
			"scale":[
				1,
				1,
				0.06797844171524048
			],
			"translation":[
				-44.43373107910156,
				18.449073791503906,
				25.969829559326172
			]
		},
		{
			"mesh":1,
			"name":"Ground_floor_button_collider",
			"scale":[
				1,
				1,
				0.06797844171524048
			],
			"translation":[
				-44.43373107910156,
				18.450183868408203,
				25.969829559326172
			]
		}
	],
	"materials":[
		{
			"doubleSided":true,
			"name":"elevator_buttons",
			"pbrMetallicRoughness":{
				"baseColorTexture":{
					"index":0
				},
				"metallicFactor":0,
				"roughnessFactor":0.5
			}
		}
	],
	"meshes":[
		{
			"name":"Cube.012",
			"primitives":[
				{
					"attributes":{
						"POSITION":0,
						"TEXCOORD_0":1,
						"NORMAL":2
					},
					"indices":3,
					"material":0
				}
			]
		},
		{
			"name":"Cube.383",
			"primitives":[
				{
					"attributes":{
						"POSITION":4,
						"TEXCOORD_0":5,
						"NORMAL":6
					},
					"indices":3
				}
			]
		}
	],
	"textures":[
		{
			"sampler":0,
			"source":0
		}
	],
	"images":[
		{
			"mimeType":"image/jpeg",
			"name":"ubs_buttons_1",
			"uri":"textures/ubs_buttons_1.jpg"
		}
	],
	"accessors":[
		{
			"bufferView":0,
			"componentType":5126,
			"count":208,
			"max":[
				2.820800304412842,
				16.91947364807129,
				552.435791015625
			],
			"min":[
				-4.079335689544678,
				-17.586198806762695,
				-184.2054443359375
			],
			"type":"VEC3"
		},
		{
			"bufferView":1,
			"componentType":5126,
			"count":208,
			"type":"VEC2"
		},
		{
			"bufferView":2,
			"componentType":5126,
			"count":208,
			"type":"VEC3"
		},
		{
			"bufferView":3,
			"componentType":5123,
			"count":528,
			"type":"SCALAR"
		},
		{
			"bufferView":4,
			"componentType":5126,
			"count":208,
			"max":[
				2.820800304412842,
				16.922805786132812,
				552.435791015625
			],
			"min":[
				-4.079335689544678,
				-17.587308883666992,
				-184.2054443359375
			],
			"type":"VEC3"
		},
		{
			"bufferView":5,
			"componentType":5126,
			"count":208,
			"type":"VEC2"
		},
		{
			"bufferView":6,
			"componentType":5126,
			"count":208,
			"type":"VEC3"
		}
	],
	"bufferViews":[
		{
			"buffer":0,
			"byteLength":2496,
			"byteOffset":0,
			"target":34962
		},
		{
			"buffer":0,
			"byteLength":1664,
			"byteOffset":2496,
			"target":34962
		},
		{
			"buffer":0,
			"byteLength":2496,
			"byteOffset":4160,
			"target":34962
		},
		{
			"buffer":0,
			"byteLength":1056,
			"byteOffset":6656,
			"target":34963
		},
		{
			"buffer":0,
			"byteLength":2496,
			"byteOffset":7712,
			"target":34962
		},
		{
			"buffer":0,
			"byteLength":1664,
			"byteOffset":10208,
			"target":34962
		},
		{
			"buffer":0,
			"byteLength":2496,
			"byteOffset":11872,
			"target":34962
		}
	],
	"samplers":[
		{
			"magFilter":9729,
			"minFilter":9987
		}
	],
	"buffers":[
		{
			"byteLength":14368,
			"uri":"ubs_elevator_button_ground_floor.bin"
		}
	]
}
