{
	"asset":{
		"generator":"Khronos glTF Blender I/O v3.5.30",
		"version":"2.0"
	},
	"scene":0,
	"scenes":[
		{
			"name":"Main Hub",
			"nodes":[
				0,
				1
			]
		}
	],
	"nodes":[
		{
			"mesh":0,
			"name":"Minting_station",
			"rotation":[
				0,
				0.7071068286895752,
				0,
				0.7071067094802856
			],
			"scale":[
				0.298709899187088,
				0.4445143938064575,
				0.44451436400413513
			],
			"translation":[
				-47.80284881591797,
				2.871342182159424,
				21.57545280456543
			]
		},
		{
			"mesh":1,
			"name":"Mint_station_collider",
			"rotation":[
				0,
				0.7071068286895752,
				0,
				0.7071068286895752
			],
			"scale":[
				0.5943512916564941,
				1,
				1
			],
			"translation":[
				-48.14409637451172,
				2.000337600708008,
				21.540159225463867
			]
		}
	],
	"materials":[
		{
			"doubleSided":true,
			"name":"Mountain texture",
			"pbrMetallicRoughness":{
				"baseColorTexture":{
					"index":0
				},
				"metallicFactor":0
			}
		}
	],
	"meshes":[
		{
			"name":"Cube.590",
			"primitives":[
				{
					"attributes":{
						"POSITION":0,
						"TEXCOORD_0":1,
						"NORMAL":2
					},
					"indices":3,
					"material":0
				}
			]
		},
		{
			"name":"Cube.591",
			"primitives":[
				{
					"attributes":{
						"POSITION":4,
						"TEXCOORD_0":5,
						"NORMAL":6
					},
					"indices":7
				}
			]
		}
	],
	"textures":[
		{
			"sampler":0,
			"source":0
		}
	],
	"images":[
		{
			"mimeType":"image/jpeg",
			"name":"minting_wood_texxture_v3",
			"uri":"textures/minting_wood_texxture_v3.jpg"
		}
	],
	"accessors":[
		{
			"bufferView":0,
			"componentType":5126,
			"count":1536,
			"max":[
				2.519367218017578,
				2.535283088684082,
				1.1616878509521484
			],
			"min":[
				-1.934548020362854,
				-4.261399269104004,
				-2.8383121490478516
			],
			"type":"VEC3"
		},
		{
			"bufferView":1,
			"componentType":5126,
			"count":1536,
			"type":"VEC2"
		},
		{
			"bufferView":2,
			"componentType":5126,
			"count":1536,
			"type":"VEC3"
		},
		{
			"bufferView":3,
			"componentType":5123,
			"count":4359,
			"type":"SCALAR"
		},
		{
			"bufferView":4,
			"componentType":5126,
			"count":24,
			"max":[
				1,
				2.0523877143859863,
				1
			],
			"min":[
				-1,
				-1,
				-1
			],
			"type":"VEC3"
		},
		{
			"bufferView":5,
			"componentType":5126,
			"count":24,
			"type":"VEC2"
		},
		{
			"bufferView":6,
			"componentType":5126,
			"count":24,
			"type":"VEC3"
		},
		{
			"bufferView":7,
			"componentType":5123,
			"count":36,
			"type":"SCALAR"
		}
	],
	"bufferViews":[
		{
			"buffer":0,
			"byteLength":18432,
			"byteOffset":0,
			"target":34962
		},
		{
			"buffer":0,
			"byteLength":12288,
			"byteOffset":18432,
			"target":34962
		},
		{
			"buffer":0,
			"byteLength":18432,
			"byteOffset":30720,
			"target":34962
		},
		{
			"buffer":0,
			"byteLength":8718,
			"byteOffset":49152,
			"target":34963
		},
		{
			"buffer":0,
			"byteLength":288,
			"byteOffset":57872,
			"target":34962
		},
		{
			"buffer":0,
			"byteLength":192,
			"byteOffset":58160,
			"target":34962
		},
		{
			"buffer":0,
			"byteLength":288,
			"byteOffset":58352,
			"target":34962
		},
		{
			"buffer":0,
			"byteLength":72,
			"byteOffset":58640,
			"target":34963
		}
	],
	"samplers":[
		{
			"magFilter":9729,
			"minFilter":9987
		}
	],
	"buffers":[
		{
			"byteLength":58712,
			"uri":"ubs_int_minting_station.bin"
		}
	]
}
